<svg width="545" height="485" viewBox="0 0 545 485" fill="none" xmlns="http://www.w3.org/2000/svg">
<circle cx="272.934" cy="428.764" r="24.3009" fill="#F03034"/>
<rect x="248.633" y="355.861" width="48.6018" height="48.6018" fill="#BDBDBD"/>
<path d="M248.199 265.529L297.806 265.529L273.002 308.489L248.199 265.529Z" fill="#D9D9D9"/>
<circle cx="285.084" cy="229.148" r="12.1505" fill="#BDBDBD"/>
<path d="M248.633 241.299C248.633 244.49 249.262 247.65 250.483 250.598C251.704 253.547 253.494 256.225 255.751 258.482C258.007 260.739 260.686 262.529 263.634 263.75C266.583 264.971 269.743 265.6 272.934 265.6C276.125 265.6 279.285 264.971 282.234 263.75C285.182 262.529 287.861 260.739 290.117 258.482C292.374 256.225 294.164 253.547 295.385 250.598C296.606 247.65 297.235 244.49 297.235 241.299L272.934 241.299L248.633 241.299Z" fill="#575757"/>
<path d="M225.2 308.127C225.2 314.396 226.435 320.603 228.834 326.394C231.232 332.186 234.749 337.448 239.181 341.88C243.614 346.313 248.876 349.829 254.667 352.228C260.458 354.627 266.666 355.861 272.934 355.861C279.203 355.861 285.41 354.627 291.201 352.228C296.992 349.829 302.255 346.313 306.687 341.88C311.12 337.448 314.636 332.186 317.034 326.394C319.433 320.603 320.668 314.396 320.668 308.127L272.934 308.127L225.2 308.127Z" fill="#E9E9E9"/>
<rect x="248.633" y="216.998" width="24.3009" height="24.3009" fill="#E9E9E9"/>
<rect y="453" width="545" height="2" fill="#575757"/>
</svg>
