<svg width="545" height="485" viewBox="0 0 545 485" fill="none" xmlns="http://www.w3.org/2000/svg">
<path d="M249.807 272.998C258.96 272.998 266.786 278.679 269.952 286.708C270.921 289.166 271.454 291.844 271.454 294.646V411.385H435.353C447.308 411.385 457 421.077 457 433.032C457 444.987 447.308 454.679 435.353 454.679H249.887C249.86 454.679 249.833 454.68 249.807 454.68C237.851 454.68 228.16 444.988 228.16 433.033V316.292H110.647C98.6923 316.292 89.0002 306.601 89 294.646C89 282.69 98.6921 272.998 110.647 272.998H249.807Z" fill="#E1E1E1" fill-opacity="0.4"/>
<circle cx="110.647" cy="294.647" r="21.6471" fill="#F03034"/>
<circle cx="296.193" cy="294.647" r="21.6471" fill="#E9E9E9"/>
<circle cx="342.58" cy="294.647" r="21.6471" fill="#E9E9E9"/>
<circle cx="388.966" cy="294.647" r="21.6471" fill="#E9E9E9"/>
<circle cx="435.353" cy="294.647" r="21.6471" fill="#BDBDBD"/>
<circle cx="110.647" cy="341.034" r="21.6471" fill="#E9E9E9"/>
<circle cx="157.034" cy="341.034" r="21.6471" fill="#BDBDBD"/>
<circle cx="203.42" cy="341.034" r="21.6471" fill="#BDBDBD"/>
<circle cx="296.193" cy="341.034" r="21.6471" fill="#E9E9E9"/>
<circle cx="342.58" cy="341.034" r="21.6471" fill="#575757"/>
<circle cx="388.966" cy="341.034" r="21.6471" fill="#BDBDBD"/>
<circle cx="435.353" cy="341.034" r="21.6471" fill="#BDBDBD"/>
<circle cx="110.647" cy="387.421" r="21.6471" fill="#E9E9E9"/>
<circle cx="157.034" cy="387.421" r="21.6471" fill="#E9E9E9"/>
<circle cx="203.42" cy="387.421" r="21.6471" fill="#BDBDBD"/>
<circle cx="296.193" cy="387.421" r="21.6471" fill="#E9E9E9"/>
<circle cx="342.58" cy="387.421" r="21.6471" fill="#575757"/>
<circle cx="388.966" cy="387.421" r="21.6471" fill="#575757"/>
<circle cx="435.353" cy="387.421" r="21.6471" fill="#BDBDBD"/>
<circle cx="110.647" cy="433.807" r="21.6471" fill="#575757"/>
<circle cx="157.034" cy="433.807" r="21.6471" fill="#E9E9E9"/>
<circle cx="203.42" cy="433.807" r="21.6471" fill="#BDBDBD"/>
<circle cx="435.353" cy="433.807" r="21.6471" fill="#F03034"/>
</svg>
