<svg width="256" height="258" viewBox="0 0 256 258" fill="none" xmlns="http://www.w3.org/2000/svg">
<path d="M5.46331 127.457C5.45682 149.134 11.121 170.3 21.8908 188.956L4.43286 252.698L69.6645 235.594C87.6357 245.389 107.871 250.56 128.465 250.565H128.519C196.334 250.565 251.537 195.381 251.566 127.554C251.579 94.6864 238.791 63.7808 215.557 40.5291C192.328 17.2786 161.432 4.46738 128.514 4.45312C60.6912 4.45312 5.49182 59.6331 5.46331 127.457Z" fill="url(#paint0_linear_4061_20838)"/>
<path d="M96.6782 74.1478C94.292 68.8439 91.7813 68.7376 89.5118 68.6443C87.6544 68.5653 85.53 68.5704 83.4082 68.5704C81.2838 68.5704 77.8334 69.3689 74.9158 72.5548C71.9955 75.7421 63.7675 83.4464 63.7675 99.1157C63.7675 114.786 75.1815 129.928 76.7719 132.055C78.3648 134.178 98.8052 167.362 131.177 180.128C158.081 190.737 163.556 188.627 169.395 188.096C175.234 187.565 188.239 180.394 190.892 172.956C193.546 165.52 193.546 159.146 192.751 157.815C191.955 156.487 189.83 155.69 186.646 154.099C183.46 152.506 167.802 144.8 164.883 143.737C161.963 142.676 159.84 142.145 157.716 145.334C155.592 148.519 149.493 155.69 147.634 157.815C145.777 159.943 143.918 160.209 140.733 158.616C137.547 157.018 127.29 153.658 115.121 142.809C105.653 134.367 99.2615 123.942 97.4028 120.754C95.5454 117.569 97.2045 115.844 98.8013 114.256C100.232 112.829 101.987 110.537 103.58 108.679C105.169 106.819 105.699 105.491 106.761 103.367C107.824 101.241 107.292 99.3814 106.497 97.7884C105.699 96.1954 99.5103 80.4458 96.6782 74.1478Z" fill="white"/>
<defs>
<linearGradient id="paint0_linear_4061_20838" x1="12361.1" y1="24829" x2="12361.1" y2="4.46496" gradientUnits="userSpaceOnUse">
<stop stop-color="#1FAF38"/>
<stop offset="1" stop-color="#60D669"/>
</linearGradient>
</defs>
</svg>
